<svg width="119" height="27" viewBox="0 0 119 27" 
    xmlns="http://www.w3.org/2000/svg" 
    xmlns:xlink="http://www.w3.org/1999/xlink">
    <defs>
        <path id="a" d="M0 .153h26.18v26.18H0z"/>
        <path id="c" d="M0 26.585h118.66V.405H0z"/>
    </defs>
    <g fill="none" fill-rule="evenodd">
        <g transform="translate(0 .253)">
            <mask id="b" fill="#fff">
                <use xlink:href="#a"/>
            </mask>
            <path d="M13.09.153C5.862.153 0 6.013 0 13.243c0 7.229 5.862 13.09 13.09 13.09s13.09-5.861 13.09-13.09c0-7.23-5.862-13.09-13.09-13.09zM8.356 6.25a.158.158 0 0 1 .031-.042.318.318 0 0 1 .241-.111c.093 0 .176.039.236.1l.039.055.718 1.346H7.638l.718-1.348zm10.17 10.746a3.212 3.212 0 0 1-3.227 3.228c-.3 0-.589-.04-.866-.117a3.17 3.17 0 0 1-1.361-.767 3.187 3.187 0 0 1-2.212.884 3.202 3.202 0 0 1-3.207-3.228V8.483h1.984V16.8c0 .973.523 1.442 1.223 1.442.646 0 1.136-.402 1.211-1.221V6.26h3.049c.568 0 .975.086 1.41.25 1.297.484 1.997 1.656 1.997 3.328v7.156z" fill="#FFF" mask="url(#b)"/>
        </g>
        <path d="M14.985 8.382h-.915v8.74c.023.863.477 1.311 1.096 1.366.044.002.089.005.133.005.705 0 1.231-.467 1.231-1.439v-6.961c0-1.089-.37-1.711-1.545-1.711M42.737 20.63H41.46L38.612 9.85l-2.846 10.78h-1.279l-3.28-13.465h1.46l2.505 10.855L38 7.165h1.224l2.829 10.855 2.504-10.855h1.457zM48.159 20.63V7.166h7.962V8.45h-6.593v4.747h5.62v1.286h-5.62v4.86h6.593v1.287zM66.603 19.382c-.775.814-1.908 1.247-3.24 1.247h-4.398V7.166h4.397c1.333 0 2.466.436 3.241 1.247 1.333 1.4 1.26 3.461 1.26 5.333 0 1.872.073 4.236-1.26 5.636m-.954-9.947c-.666-.719-1.532-.983-2.522-.983h-2.793v10.892h2.793c.99 0 1.856-.265 2.522-.983.882-.965.845-2.969.845-4.615 0-1.646.037-3.347-.845-4.311M71.088 20.63V7.166h7.962V8.45h-6.593v4.747h5.621v1.286h-5.62v4.86h6.592v1.287zM85.193 20.745c-1.93 0-3.19-.511-4.395-1.779l.936-.983c1.063 1.115 2.053 1.476 3.495 1.476 1.872 0 3.025-.929 3.025-2.497 0-.7-.2-1.304-.611-1.683-.415-.378-.74-.492-1.675-.643l-1.496-.246c-.99-.171-1.802-.51-2.36-1.021-.648-.607-.972-1.437-.972-2.515 0-2.29 1.566-3.804 4.107-3.804 1.639 0 2.72.436 3.819 1.478l-.884.926c-.793-.755-1.639-1.154-2.99-1.154-1.71 0-2.7 1-2.7 2.497 0 .66.178 1.192.575 1.55.396.36 1.063.625 1.729.736l1.405.229c1.206.189 1.8.453 2.341.946.703.622 1.081 1.55 1.081 2.665 0 2.365-1.765 3.822-4.43 3.822" fill="#FFF"/>
        <mask id="d" fill="#fff">
            <use xlink:href="#c"/>
        </mask>
        <path fill="#FFF" mask="url(#d)" d="M92.488 20.63h1.369V7.164h-1.369zM104.952 19.194c-.864.983-2.054 1.55-3.386 1.55a4.47 4.47 0 0 1-3.28-1.4c-1.205-1.267-1.205-2.59-1.205-5.447 0-2.854 0-4.179 1.205-5.447a4.44 4.44 0 0 1 3.28-1.4c1.693 0 2.701.646 3.837 1.836l-.918.964c-.902-.943-1.605-1.511-2.92-1.511-.847 0-1.656.358-2.216.964-.809.871-.9 1.779-.9 4.594 0 2.818.091 3.747.9 4.615.56.607 1.37.946 2.217.946.936 0 1.82-.396 2.414-1.153.52-.643.702-1.437.702-2.46v-1.001h-3.116v-1.268h4.485v2.139c0 1.55-.306 2.59-1.1 3.479M117.363 20.63l-6.808-10.797V20.63h-1.37V7.165h1.297l6.808 10.762V7.165h1.37V20.63z"/>
    </g>
</svg>